<?xml version="1.0" standalone="no"?>
<!DOCTYPE svg PUBLIC "-//W3C//DTD SVG 20010904//EN"
 "http://www.w3.org/TR/2001/REC-SVG-20010904/DTD/svg10.dtd">
<svg version="1.0" xmlns="http://www.w3.org/2000/svg"
 width="1000.000000pt" height="1000.000000pt" viewBox="0 0 1000.000000 1000.000000"
 preserveAspectRatio="xMidYMid meet">
<metadata>
Created by potrace 1.11, written by Peter Selinger 2001-2013
</metadata>
<g transform="translate(0.000000,1000.000000) scale(0.100000,-0.100000)"
fill="#000000" stroke="none">
<path d="M3550 7320 c-102 -17 -196 -54 -324 -130 -86 -50 -511 -296 -585
-338 -25 -14 -68 -38 -95 -55 -53 -31 -80 -46 -181 -104 -33 -19 -67 -38 -75
-43 -20 -13 -132 -77 -447 -259 -143 -83 -276 -159 -295 -170 -18 -11 -44 -26
-58 -34 -24 -13 -336 -193 -520 -300 -47 -27 -152 -87 -235 -135 -231 -132
-287 -175 -370 -282 -231 -301 -208 -727 55 -1000 83 -86 147 -127 650 -412
19 -11 76 -44 125 -73 50 -29 106 -62 125 -73 19 -10 78 -44 130 -74 201 -117
759 -439 1075 -621 182 -105 411 -238 510 -295 333 -193 375 -212 514 -237
153 -26 310 -5 451 63 280 133 448 405 442 716 -2 88 -10 131 -42 227 -49 146
-129 259 -254 358 -33 26 -73 54 -88 62 -23 12 -426 245 -617 357 -31 18 -65
37 -76 42 -25 13 -61 34 -245 141 -80 47 -172 101 -205 120 -33 18 -72 41 -86
49 -15 8 -90 51 -167 95 -78 44 -141 82 -142 85 0 3 43 30 96 60 54 30 115 66
138 79 23 13 55 32 71 41 17 9 75 43 130 75 55 32 127 74 160 92 33 19 67 38
75 43 28 18 272 160 275 160 1 0 134 77 295 170 161 94 295 170 296 170 8 0
82 54 127 92 64 55 129 140 178 233 21 41 39 77 39 80 0 3 6 29 14 58 42 146
38 299 -11 446 -31 91 -44 118 -96 196 -110 162 -280 274 -488 321 -40 9 -221
11 -269 4z"/>
<path d="M6240 7320 c-19 -4 -51 -10 -70 -14 -59 -12 -162 -57 -233 -103 -152
-97 -262 -243 -316 -417 -85 -274 -11 -568 194 -772 53 -53 108 -92 211 -153
76 -45 146 -86 154 -91 8 -6 22 -13 30 -17 8 -4 64 -35 123 -70 60 -35 127
-74 150 -87 23 -13 98 -56 167 -96 69 -40 145 -84 170 -98 49 -28 366 -211
470 -272 36 -21 100 -58 143 -83 78 -45 78 -46 55 -60 -24 -15 -245 -143 -608
-352 -113 -64 -216 -125 -230 -133 -14 -9 -27 -17 -30 -17 -3 0 -54 -30 -115
-66 -60 -35 -220 -128 -355 -204 -229 -131 -251 -146 -335 -230 -100 -100
-147 -176 -189 -302 -54 -164 -53 -323 3 -490 148 -438 659 -647 1071 -437 69
35 74 38 325 184 88 51 216 125 285 165 69 40 213 123 320 185 107 62 215 124
240 138 25 14 77 44 115 67 39 22 77 44 85 48 8 4 31 17 50 28 19 12 121 70
225 131 105 60 197 113 205 118 25 15 175 102 375 217 608 351 590 340 680
428 224 221 283 591 138 879 -36 72 -103 164 -155 212 -40 37 -173 134 -184
134 -2 0 -59 32 -127 71 -67 40 -135 79 -152 89 -16 9 -102 59 -190 110 -88
51 -180 104 -205 118 -25 14 -151 87 -280 162 -129 75 -242 139 -250 143 -8 4
-24 13 -35 20 -46 28 -233 136 -275 159 -25 14 -112 65 -195 113 -82 48 -170
99 -195 113 -25 13 -97 55 -160 92 -560 328 -707 407 -787 424 -15 4 -39 9
-53 12 -38 9 -221 12 -260 4z"/>
</g>
</svg>
